<svg xmlns="http://www.w3.org/2000/svg" height="56.693" width="413.693" viewBox="0 0 413.693 56.693"><path d="M53.858 56.693H2.835A2.843 2.843 0 010 53.86V2.835A2.843 2.843 0 012.835 0h51.023a2.843 2.843 0 012.835 2.835v51.024a2.843 2.843 0 01-2.835 2.834" fill="#ee2840"/><path d="M36.372 30.044c.24 6.855-2.578 11.81-8.79 11.81-4.838 0-9.737-3.623-9.737-10.81V11.77H9.88V31.45c0 7.454 4.992 15.098 16.494 15.098 11.164 0 15.657-8.011 15.707-14.656 8.151 1.257 11.888-4.825 10.822-8.966-1.423 1.644-3.7 3.1-10.812 1.083V11.77h-5.718v10.3c-11.17-3.667-13.813 6.509-13.813 6.509s5.224-2.874 13.813 1.465" fill="#fff"/><path d="M87.835 39.446c-5.186 0-9.328-2.694-9.328-8.25V16.142h4.849v14.481c0 3.635 2.728 5.017 5.052 5.017 2.491 0 4.815-1.382 4.815-4.883V16.142h4.782v14.615c0 5.658-4.04 8.689-10.17 8.689M114.375 39.042V28.67c0-2.391-1.28-3.603-3.402-3.603-1.212 0-2.391.37-3.231.91v13.065h-4.48V22.036l4.31-.337-.067 2.358h.134c1.246-1.381 3.3-2.594 5.659-2.594 3.031 0 5.523 2.021 5.523 5.893v11.686h-4.446M123.536 39.042V21.867h4.515v17.175zm2.257-20.34c-1.28 0-2.357-1.078-2.357-2.392 0-1.313 1.077-2.323 2.357-2.323 1.313 0 2.358 1.01 2.358 2.323 0 1.314-1.045 2.392-2.358 2.392M141.117 39.143h-3.772l-6.869-17.276h5.05l3.066 9.092c.505 1.416.91 3.84.91 3.84s.402-2.39.909-3.84l3.064-9.092h4.546l-6.904 17.276M157.317 24.393c-2.154 0-3.501 2.054-3.737 4.11h7.24c0-2.258-1.28-4.11-3.503-4.11zm7.476 6.701h-11.382c.101 2.829 1.986 4.984 5.153 4.984 2.021 0 3.839-.438 5.86-1.213l-.203 3.167c-2.088.841-4.142 1.38-6.87 1.38-5.152 0-8.284-3.569-8.284-8.62 0-5.49 3.57-9.329 8.621-9.329 4.883 0 7.275 3.334 7.275 7.173 0 .775-.067 1.852-.17 2.458M178.57 26.548c-.877-.504-2.022-.842-3.1-.842-1.043 0-2.054.438-2.627 1.044v12.292h-4.478V22.036l4.243-.371-.135 3.065h.135c.876-1.92 2.527-3.267 4.379-3.267.806 0 1.717.202 2.29.539l-.708 4.546M185.947 39.412c-2.223 0-4.008-.471-5.491-1.28l.505-3.367c1.55.809 3.47 1.347 5.12 1.347 1.415 0 2.694-.472 2.694-1.718 0-2.728-7.779-2.12-7.779-7.61 0-3.469 3.165-5.32 6.836-5.32 1.819 0 3.704.504 4.95 1.043l-.503 3.233c-1.316-.505-3.066-.977-4.683-.977-1.21 0-2.256.472-2.256 1.449 0 2.694 7.813 2.155 7.813 7.577 0 3.738-3.266 5.623-7.206 5.623M196.69 39.042V21.867h4.514v17.175zm2.257-20.34c-1.279 0-2.358-1.078-2.358-2.392 0-1.313 1.079-2.323 2.358-2.323 1.314 0 2.357 1.01 2.357 2.323 0 1.314-1.043 2.392-2.357 2.392M211.205 39.412c-3.03 0-4.984-1.885-4.984-4.781 0-.977.102-5.456.102-8.15v-1.448h-1.618v-1.751l5.558-5.153h.438v3.738h5.455v3.166h-5.455c0 .27-.069 5.758-.069 8.082 0 1.82 1.079 2.627 2.728 2.627.876 0 1.921-.102 2.93-.438v3.098a13.142 13.142 0 01-5.085 1.01" fill="#213661"/><path d="M227.54 39.075c-1.819 4.649-4.377 8.655-8.555 8.655-1.346 0-2.558-.336-3.301-.774l.71-3.232c.706.269 1.514.437 2.425.437 2.322 0 3.87-3.064 4.813-5.288l-6.801-17.006h5.052l3.13 8.924c.472 1.382.878 3.874.878 3.874s.504-2.426.976-3.874l2.896-8.924h4.478l-6.701 17.208M251.15 24.763c-2.593 0-4.21 2.458-4.21 5.557 0 3.131 1.683 5.792 4.31 5.792 2.526 0 4.243-2.458 4.243-5.523 0-3.165-1.682-5.826-4.344-5.826zm-.305 14.65c-5.185 0-8.52-3.84-8.52-8.69 0-5.42 3.571-9.26 9.228-9.26 5.186 0 8.52 3.84 8.52 8.688 0 5.423-3.604 9.261-9.228 9.261M272.975 16.344c-.639-.236-1.448-.438-2.19-.438-1.28 0-2.289.775-2.289 2.729v3.232h4.176V25.1h-4.176v13.942h-4.48V25.1h-2.155v-2.727l2.155-.506v-3.03c0-3.941 2.796-6.332 6.535-6.332 1.144 0 2.356.337 3.064.708l-.64 3.131M291.768 22.878c-.304-.91-.573-2.694-.573-2.694s-.27 1.717-.606 2.694l-2.358 6.869h5.928zm5.353 16.164l-2.088-6.028h-7.644l-2.02 6.028h-4.95l8.317-22.9h5.323l8.317 22.9h-5.255M316.152 39.042V28.67c0-2.391-1.28-3.603-3.403-3.603-1.212 0-2.39.37-3.233.91v13.065h-4.477V22.036l4.309-.337-.067 2.358h.135c1.247-1.381 3.301-2.594 5.657-2.594 3.031 0 5.523 2.021 5.523 5.893v11.686h-4.444M330.332 39.412c-3.032 0-4.984-1.885-4.984-4.781 0-.977.101-5.456.101-8.15v-1.448h-1.616v-1.751l5.556-5.153h.439v3.738h5.455v3.166h-5.455c0 .27-.068 5.758-.068 8.082 0 1.82 1.079 2.627 2.728 2.627.875 0 1.92-.102 2.93-.438v3.098a13.137 13.137 0 01-5.086 1.01M357.275 39.143h-3.57l-3.266-8.52c-.504-1.312-.843-3.57-.843-3.57s-.504 2.224-.976 3.57l-3.167 8.52h-3.468l-5.893-17.276h4.917l2.424 8.453c.406 1.346.808 3.938.808 3.938s.506-2.523.978-3.904l2.997-8.487h3.3l3.132 8.487c.539 1.38.943 3.838.943 3.838s.37-2.526.808-3.906l2.39-8.42h4.414l-5.928 17.277M372.768 24.393c-2.155 0-3.501 2.054-3.737 4.11h7.24c0-2.258-1.28-4.11-3.503-4.11zm7.476 6.701h-11.383c.102 2.829 1.987 4.984 5.152 4.984 2.023 0 3.84-.438 5.862-1.213l-.202 3.167c-2.089.841-4.144 1.38-6.872 1.38-5.152 0-8.285-3.569-8.285-8.62 0-5.49 3.57-9.329 8.623-9.329 4.882 0 7.274 3.334 7.274 7.173 0 .775-.068 1.852-.169 2.458M394.02 26.548c-.876-.504-2.021-.842-3.099-.842-1.044 0-2.054.438-2.628 1.044v12.292h-4.477V22.036l4.243-.371-.135 3.065h.135c.876-1.92 2.526-3.267 4.378-3.267.807 0 1.718.202 2.29.539l-.707 4.546M404.797 25c-1.145 0-2.288.37-3.065.909v9.461c.641.438 1.785.742 2.763.742 2.964 0 4.646-2.357 4.646-5.489 0-3.502-1.716-5.623-4.344-5.623zm-.504 14.278c-.944 0-1.988-.236-2.561-.539v8.89h-4.477V22.037l4.31-.337-.068 2.29h.135c1.247-1.515 3.2-2.526 5.12-2.526 4.243 0 6.936 3.604 6.936 8.386 0 5.657-3.67 9.43-9.395 9.43" fill="#213661"/></svg>